<svg width="25" height="25" viewBox="0 0 25 25" fill="none" xmlns="http://www.w3.org/2000/svg">
<circle cx="12.5" cy="12.5" r="12.5" fill="#453567"/>
<path d="M4.7642 13.7406L4.76416 13.7408C4.70124 14.1164 4.85083 14.4953 5.15582 14.7249L10.5067 19.3559L10.5067 19.3559L10.5086 19.3575C10.7318 19.5469 11.0261 19.6302 11.3143 19.5885L11.3157 19.5883C11.6052 19.5447 11.8616 19.38 12.0208 19.1354C12.0209 19.1352 12.021 19.1351 12.0211 19.135L19.7436 7.34097C19.9611 7.02095 19.9784 6.60785 19.79 6.2708L19.7897 6.27025C19.6007 5.93407 19.2375 5.73371 18.8528 5.75104C18.5162 5.76338 18.2071 5.94132 18.0278 6.22639L10.9538 17.049L6.4931 13.1945C6.22659 12.9245 5.83098 12.8242 5.46633 12.9383C5.10055 13.0519 4.82797 13.362 4.7642 13.7406Z" fill="white" stroke="white" stroke-width="0.5"/>
</svg>
